<?xml version="1.0" standalone="no"?>
<!DOCTYPE svg PUBLIC "-//W3C//DTD SVG 20010904//EN"
 "http://www.w3.org/TR/2001/REC-SVG-20010904/DTD/svg10.dtd">
<svg version="1.0" xmlns="http://www.w3.org/2000/svg"
 width="200.000000pt" height="170.000000pt" viewBox="0 0 200.000000 170.000000"
 preserveAspectRatio="xMidYMid meet">
<metadata>
Created by potrace 1.16, written by Peter Selinger 2001-2019
</metadata>
<g transform="translate(0.000000,170.000000) scale(0.100000,-0.100000)"
fill="#000000" stroke="none">
<path d="M987 1328 c-9 -7 -62 -119 -118 -248 -55 -129 -102 -236 -104 -238
-1 -2 -26 4 -54 14 -115 37 -236 -12 -294 -121 -32 -60 -30 -171 5 -247 118
-256 471 -317 682 -118 92 87 135 221 105 327 -9 34 -27 63 -64 99 -59 59
-123 81 -206 70 -27 -4 -49 -5 -49 -2 0 9 123 291 130 299 7 8 239 -323 274
-391 l16 -30 40 15 c82 33 169 -24 178 -117 12 -126 -91 -247 -238 -280 -41
-9 -66 -22 -97 -53 -24 -23 -43 -45 -43 -49 0 -14 123 -9 185 8 114 29 203 97
255 196 28 51 34 77 38 140 3 50 0 89 -8 110 -35 89 -112 146 -207 155 l-58 5
-154 229 c-85 126 -158 229 -162 229 -4 0 -13 2 -21 5 -7 3 -21 0 -31 -7z
m-262 -597 c62 -44 105 -45 160 -1 50 40 95 47 146 24 88 -39 110 -139 54
-243 -34 -63 -71 -95 -145 -130 -45 -21 -69 -26 -135 -26 -125 1 -220 52 -274
147 -41 71 -47 126 -22 183 16 36 30 50 63 66 54 25 99 19 153 -20z"/>
</g>
</svg>
